<mxfile host="app.diagrams.net" modified="2022-04-18T16:40:20.126Z" agent="5.0 (Windows NT 10.0; Win64; x64) AppleWebKit/537.36 (KHTML, like Gecko) Chrome/100.0.4896.88 Safari/537.36" etag="RTgyCCHMPbtsdM8OITIS" version="17.4.5" type="github">
  <diagram id="pwTc-8yXMPjUyVVQ37dK" name="Page-1">
    <mxGraphModel dx="2272" dy="705" grid="1" gridSize="10" guides="1" tooltips="1" connect="1" arrows="1" fold="1" page="1" pageScale="1" pageWidth="850" pageHeight="1100" math="0" shadow="0">
      <root>
        <mxCell id="0" />
        <mxCell id="1" parent="0" />
        <mxCell id="3ddjwSKnXpyaVbSKceZa-2" value="&lt;font style=&quot;font-size: 16px&quot;&gt;Get Used By&lt;br&gt;&lt;/font&gt;" style="edgeStyle=orthogonalEdgeStyle;rounded=0;orthogonalLoop=1;jettySize=auto;html=1;exitX=0.5;exitY=0;exitDx=0;exitDy=0;entryX=0.5;entryY=1;entryDx=0;entryDy=0;fontSize=24;strokeWidth=3;" parent="1" source="3ddjwSKnXpyaVbSKceZa-12" target="3ddjwSKnXpyaVbSKceZa-13" edge="1">
          <mxGeometry relative="1" as="geometry">
            <Array as="points">
              <mxPoint x="305" y="160" />
              <mxPoint x="305" y="160" />
            </Array>
          </mxGeometry>
        </mxCell>
        <mxCell id="3ddjwSKnXpyaVbSKceZa-7" value="&lt;font style=&quot;font-size: 16px&quot;&gt;Get Used By&lt;/font&gt;" style="edgeStyle=orthogonalEdgeStyle;rounded=0;orthogonalLoop=1;jettySize=auto;html=1;exitX=0;exitY=0.5;exitDx=0;exitDy=0;entryX=1;entryY=0.5;entryDx=0;entryDy=0;fontSize=24;strokeWidth=3;" parent="1" source="3ddjwSKnXpyaVbSKceZa-12" target="3ddjwSKnXpyaVbSKceZa-17" edge="1">
          <mxGeometry x="-0.0588" y="-5" relative="1" as="geometry">
            <mxPoint as="offset" />
          </mxGeometry>
        </mxCell>
        <mxCell id="3ddjwSKnXpyaVbSKceZa-8" value="&lt;font style=&quot;font-size: 16px&quot;&gt;Get Used By&lt;br&gt;&lt;/font&gt;" style="edgeStyle=orthogonalEdgeStyle;rounded=0;orthogonalLoop=1;jettySize=auto;html=1;exitX=1;exitY=0.5;exitDx=0;exitDy=0;entryX=0;entryY=0.5;entryDx=0;entryDy=0;fontSize=24;strokeWidth=3;" parent="1" source="3ddjwSKnXpyaVbSKceZa-12" target="3ddjwSKnXpyaVbSKceZa-18" edge="1">
          <mxGeometry x="-0.0526" y="5" relative="1" as="geometry">
            <mxPoint as="offset" />
          </mxGeometry>
        </mxCell>
        <mxCell id="3ddjwSKnXpyaVbSKceZa-12" value="&lt;font style=&quot;font-size: 24px&quot;&gt;Bladed Weapon&lt;/font&gt;" style="rounded=1;whiteSpace=wrap;html=1;strokeWidth=3;" parent="1" vertex="1">
          <mxGeometry x="210" y="210" width="190" height="90" as="geometry" />
        </mxCell>
        <mxCell id="3ddjwSKnXpyaVbSKceZa-13" value="&lt;font style=&quot;font-size: 24px&quot;&gt;Player&lt;/font&gt;" style="rounded=1;whiteSpace=wrap;html=1;strokeWidth=3;" parent="1" vertex="1">
          <mxGeometry x="210" y="40" width="190" height="90" as="geometry" />
        </mxCell>
        <mxCell id="3ddjwSKnXpyaVbSKceZa-17" value="&lt;font style=&quot;font-size: 24px&quot;&gt;Bot&lt;br&gt;&lt;/font&gt;" style="rounded=1;whiteSpace=wrap;html=1;strokeWidth=3;" parent="1" vertex="1">
          <mxGeometry x="-150" y="210" width="190" height="90" as="geometry" />
        </mxCell>
        <mxCell id="3ddjwSKnXpyaVbSKceZa-18" value="&lt;font style=&quot;font-size: 24px&quot;&gt;Character&lt;/font&gt;" style="rounded=1;whiteSpace=wrap;html=1;strokeWidth=3;" parent="1" vertex="1">
          <mxGeometry x="550" y="210" width="190" height="90" as="geometry" />
        </mxCell>
        <mxCell id="Qv04quXtCREzQGqy3Qu7-2" style="edgeStyle=orthogonalEdgeStyle;rounded=0;orthogonalLoop=1;jettySize=auto;html=1;entryX=0.5;entryY=1;entryDx=0;entryDy=0;fontSize=19;strokeWidth=3;startArrow=none;" edge="1" parent="1" source="Qv04quXtCREzQGqy3Qu7-5" target="3ddjwSKnXpyaVbSKceZa-12">
          <mxGeometry relative="1" as="geometry" />
        </mxCell>
        <mxCell id="Qv04quXtCREzQGqy3Qu7-1" value="&lt;font style=&quot;font-size: 24px&quot;&gt;Weapon&lt;/font&gt;" style="rounded=1;whiteSpace=wrap;html=1;strokeWidth=3;" vertex="1" parent="1">
          <mxGeometry x="210" y="390" width="190" height="90" as="geometry" />
        </mxCell>
        <mxCell id="Qv04quXtCREzQGqy3Qu7-5" value="is a" style="text;html=1;strokeColor=none;fillColor=none;align=center;verticalAlign=middle;whiteSpace=wrap;rounded=0;labelBackgroundColor=default;fontSize=19;" vertex="1" parent="1">
          <mxGeometry x="275" y="340" width="60" height="30" as="geometry" />
        </mxCell>
        <mxCell id="Qv04quXtCREzQGqy3Qu7-6" value="" style="edgeStyle=orthogonalEdgeStyle;rounded=0;orthogonalLoop=1;jettySize=auto;html=1;entryX=0.5;entryY=1;entryDx=0;entryDy=0;fontSize=19;strokeWidth=3;endArrow=none;" edge="1" parent="1" source="Qv04quXtCREzQGqy3Qu7-1" target="Qv04quXtCREzQGqy3Qu7-5">
          <mxGeometry relative="1" as="geometry">
            <mxPoint x="305" y="400" as="sourcePoint" />
            <mxPoint x="305" y="300" as="targetPoint" />
          </mxGeometry>
        </mxCell>
      </root>
    </mxGraphModel>
  </diagram>
</mxfile>
